# xmcd
#
# Track frame offsets: 
#        150
#        19550
#        38693
#        63679
#        78779
#        101047
#        112470
#        128880
#        146109
#        167212
#        184259
#        203040
#
# Disc length: 2995 seconds
#
# Revision: 0
# Processed by: cddbd v1.5.2PL0 Copyright (c) Steve Scherf et al.
# Submitted via: ExactAudioCopy v0.99pb4
#
DISCID=ad0bb10c
DTITLE=Eric Devries - Sweet Oblivion
DYEAR=2007
DGENRE=Folk
TTITLE0=Lose Myself
TTITLE1=No Need To Wonder
TTITLE2=Love So Blind
TTITLE3=Lost To The Day
TTITLE4=Sweet Oblivion
TTITLE5=The Longest Day In June
TTITLE6=Like A Tin Can
TTITLE7=In A Long Gone Dream
TTITLE8=Sharon Says
TTITLE9=Summer's Gone
TTITLE10=Sometime Tomorrow
TTITLE11=Don't You Think It's Time
EXTD=
EXTT0=
EXTT1=
EXTT2=
EXTT3=
EXTT4=
EXTT5=
EXTT6=
EXTT7=
EXTT8=
EXTT9=
EXTT10=
EXTT11=
PLAYORDER=
